# xmcd
#
# Track frame offsets:
#	150
#	12155
#	25687
#	38045
#	51155
#	66350
#	78100
#	94065
#	106255
#	123442
#	138922
#	153337
#	169230
#	182767
#	191882
#	204562
#	218835
#	229960
#	242210
#	253227
#
# Disc length: 3573 seconds
#
# Revision: 3
# Processed by: cddbd v1.5.2PL0 Copyright (c) Steve Scherf et al.
# Submitted via: EasyCDDAExtractor 12.1.0.1
#
DISCID=160df314
DTITLE=eysuhl™ Dimitra Galani - Dimitra Galani [1982 Columbia.Greece 712252] U
DTITLE=nforgettable Hits
DYEAR=1982
DGENRE=Ethnic
TTITLE0=The Blue Your Letters
TTITLE1=If You Love Kiss Cross
TTITLE2=Love In The Heart
TTITLE3=And Rain Today
TTITLE4=Once Upon A Time
TTITLE5=The Damned
TTITLE6=There Will Be
TTITLE7=Hasapiko Forty
TTITLE8=I Broke Down
TTITLE9=Maria In Yellow
TTITLE10=One Sunday In March
TTITLE11=The Bitterness Today
TTITLE12=Sorry That I Loved
TTITLE13=In Carnation Brisket
TTITLE14=Eivala
TTITLE15=Gets Too Dark
TTITLE16=What Should I Do With Life
TTITLE17=One Train
TTITLE18=I Love You Too
TTITLE19=The Legend
EXTD=ID3G: 123
EXTT0=
EXTT1=
EXTT2=
EXTT3=
EXTT4=
EXTT5=
EXTT6=
EXTT7=
EXTT8=
EXTT9=
EXTT10=
EXTT11=
EXTT12=
EXTT13=
EXTT14=
EXTT15=
EXTT16=
EXTT17=
EXTT18=
EXTT19=
PLAYORDER=
